 http://img259.imageshack.us/img259/7752/selenagomezthescenehitt.jpg



Format                                   : MPEG-4
Format profile                           : Base Media / Version 2
Codec ID                                 : mp42
File size                                : 51.6 MiB
Duration                                 : 3mn 16s
Overall bit rate mode                    : Variable
Overall bit rate                         : 2 202 Kbps
Encoded date                             : UTC 2012-04-17 17:06:09
Tagged date                              : UTC 2012-04-17 17:06:09
gsst                                     : 0
gstd                                     : 196858
gssd                                     : BADC23401HH1334854928118742
gshh                                     :

Video
ID                                       : 1
Format                                   : AVC
Format/Info                              : Advanced Video Codec
Format profile                           : High@L3.1
Format settings, CABAC                   : Yes
Format settings, ReFrames                : 1 frame
Codec ID                                 : avc1
Codec ID/Info                            : Advanced Video Coding
Duration                                 : 3mn 16s
Bit rate                                 : 2 052 Kbps
Maximum bit rate                         : 4 071 Kbps
Width                                    : 1 280 pixels
Height                                   : 720 pixels
Display aspect ratio                     : 16:9
Frame rate mode                          : Constant
Frame rate                               : 23.976 fps
Color space                              : YUV
Chroma subsampling                       : 4:2:0
Bit depth                                : 8 bits
Scan type                                : Progressive
Bits/(Pixel*Frame)                       : 0.093
Stream size                              : 48.1 MiB (93%)
Tagged date                              : UTC 2012-04-17 17:06:09

Audio
ID                                       : 2
Format                                   : AAC
Format/Info                              : Advanced Audio Codec
Format profile                           : LC
Codec ID                                 : 40
Duration                                 : 3mn 16s
Bit rate mode                            : Variable
Bit rate                                 : 147 Kbps
Maximum bit rate                         : 176 Kbps
Channel(s)                               : 2 channels
Channel positions                        : Front: L R
Sampling rate                            : 44.1 KHz
Compression mode                         : Lossy
Stream size                              : 3.45 MiB (7%)
Title                                    : IsoMedia File Produced by Google, 5-11-2011
Encoded date                             : UTC 2012-04-17 17:06:09
Tagged date                              : UTC 2012-04-17 17:06:09